<svg xmlns="http://www.w3.org/2000/svg" width="256" height="256"><path fill-opacity=".016" d="M0 128.004v128.004l128.25-.254 128.25-.254.254-127.75L257.008 0H0v128.004m.485.496c0 70.4.119 99.053.265 63.672.146-35.38.146-92.98 0-128C.604 29.153.485 58.1.485 128.5" fill="#1976D2" fill-rule="evenodd"/><path fill-opacity=".374" d="M76.167.985c.674 1.993 53.35 92.933 53.833 92.939.558.007 54-92.339 54-93.309C184 .277 174.643 0 163.206 0h-20.794l-5.956 10.474c-3.276 5.761-6.181 10.472-6.456 10.47-.275-.002-3.164-4.715-6.419-10.474L117.662 0H96.747c-13.284 0-20.792.359-20.58.985M63.814 79.75c-2.802 3.01-36.346 45.233-39.104 49.223-2.453 3.547-2.163 8.388.702 11.721l2.411 2.806 22.589.303 22.588.303v16.447c0 15.114.162 16.609 2 18.447 1.1 1.1 2.674 2 3.498 2 1.304 0 36.787-43.46 43.273-53 2.776-4.083 2.448-8.073-.961-11.702-2.01-2.14-2.954-2.298-13.734-2.303-6.367-.002-16.638-.296-22.826-.652L73 112.694V96.781c0-9.056-.446-16.746-1.035-17.847-1.477-2.759-5.167-2.39-8.151.816m110.294 5.332c-11.302 2.219-24.401 11.425-31.002 21.786-9.666 15.174-9.776 37.233-.26 52.231 14.823 23.361 46.17 30.09 69.037 14.82 7.857-5.246 12.533-10.694 16.809-19.58 17.661-36.706-14.238-77.181-54.584-69.257m1.143 6.434c-12.802 2.782-23.631 11.66-29.49 24.18-5.575 11.915-4.853 27.466 1.805 38.826 6.657 11.359 20.3 20.08 33.09 21.152 18.019 1.511 34.946-8.165 42.616-24.359 3.056-6.452 3.228-7.428 3.228-18.336 0-10.966-.156-11.838-3.235-18.092-5.946-12.079-18.185-21.462-31.151-23.882-6.731-1.256-9.051-1.186-16.863.511m.257 6.472c-.362.584-.527 2.866-.368 5.07.257 3.563-.039 4.175-2.675 5.531-5.59 2.875-5.897 3.646-3.558 8.934l2.103 4.755 5.95-6.493c3.564-3.89 8.185-7.653 11.529-9.389 5.069-2.631 5.554-3.17 5.295-5.896l-.284-3-8.668-.288c-5.35-.177-8.919.119-9.324.776m-19.761 12.288c-2.67 3.512-5.131 8.045-6.128 11.286-.51 1.658.149 2.502 3.373 4.314 3.837 2.156 4.008 2.464 4.008 7.219 0 5.286.117 5.405 6.086 6.23 5.552.768 6.258-.252 3.727-5.385-1.66-3.366-2.294-6.807-2.619-14.225-.417-9.509-.508-9.826-3.213-11.225-2.669-1.38-2.883-1.307-5.234 1.786m34.301 1.154c-1.676 2.437-3.048 4.687-3.048 5 0 .314 1.589.57 3.532.57 4.768 0 15.023 3.558 20.068 6.963 3.927 2.65 4.24 2.705 6.759 1.176 1.452-.881 2.641-1.893 2.641-2.248 0-1.654-3.133-7.802-5.95-11.678l-3.116-4.287-4.064 2.424-4.065 2.423-4.152-2.374c-2.284-1.306-4.469-2.38-4.855-2.387-.386-.007-2.074 1.982-3.75 4.418m-10.975 17.205c-2.49 3.165-2.605 5.161-.472 8.206 2.395 3.42 5.947 4.444 9.334 2.693 4.705-2.434 5.533-7.806 1.751-11.36-3.275-3.076-7.992-2.872-10.613.461m23.615 3.995c1.931 4.217 2.706 7.868 3.086 14.542.429 7.515.83 9.138 2.561 10.35 1.804 1.264 2.271 1.24 3.858-.196.992-.899 3.154-4.333 4.802-7.632 3.284-6.571 3.069-7.596-2.028-9.708-2.758-1.142-2.967-1.6-2.967-6.491 0-5.843-.772-6.454-8.195-6.481l-3.694-.014 2.577 5.63m-50.965 9.007c-2.585 1.355-2.598 1.417-1.062 5.095.856 2.048 2.893 5.667 4.528 8.043l2.973 4.32 4.195-2.458 4.194-2.458 3.975 2.405c2.186 1.323 4.273 2.408 4.637 2.411.759.006 6.837-8.044 6.837-9.055 0-.366-2.897-.899-6.438-1.183-4.983-.4-8.11-1.418-13.831-4.504-6.831-3.685-7.59-3.883-10.008-2.616m42.128 6.922c-3.097 4.312-12.573 11.583-16.876 12.949-1.444.458-1.975 1.519-1.975 3.943 0 3.828 1.457 4.522 9.5 4.522 8.672 0 9.5-.52 9.5-5.968 0-4.323.27-4.874 2.928-5.975 1.61-.667 3.603-1.959 4.428-2.871 1.341-1.481 1.281-2.168-.555-6.409-1.131-2.613-2.421-4.75-2.866-4.75-.446 0-2.284 2.051-4.084 4.559M89.206 198.048c-2.976 1.194-5.364 6.911-4.562 10.92.654 3.274 4.53 7.032 7.25 7.032.894 0 2.187.9 2.874 2 .797 1.276 2.332 2 4.24 2 3.4 0 3.667-.597 1.392-3.11-1.466-1.62-1.466-1.958 0-4.051 1.878-2.681 2.064-9.652.318-11.926-2.742-3.571-7.07-4.648-11.512-2.865m15.503 3.576c-1.321 1.321-.722 9.913.848 12.153 1.693 2.418 5.334 2.932 7.243 1.023.933-.933 1.2-.933 1.2 0 0 .66.92 1.2 2.044 1.2 1.897 0 2.023-.519 1.75-7.25-.263-6.485-.505-7.25-2.294-7.25-1.661 0-2.085.833-2.5 4.922-.701 6.899-2.808 7.158-3.195.393-.256-4.468-.63-5.362-2.346-5.607-1.123-.161-2.36.027-2.75.416m18.984.076c-2.98.772-1.584 3.849 1.593 3.512 1.492-.158 2.714.179 2.714.75S126.666 207 125.035 207c-3.728 0-5.75 3.135-4.207 6.522.915 2.007 1.736 2.263 7.103 2.213l6.069-.058v-5.338c0-7.755-3.239-10.47-10.307-8.639m14.306 1.1c-2.154 1.744-2.293 2.26-1.234 4.583.655 1.439 1.85 2.617 2.655 2.617.804 0 1.783.52 2.176 1.156.513.829-.198.974-2.509.511-2.919-.583-3.193-.433-2.905 1.594.256 1.804 1.061 2.3 4.138 2.554 4.582.377 6.68-1.117 6.68-4.756 0-2.025-.809-3.121-3.25-4.403-3.13-1.644-3.148-1.687-.478-1.157 1.961.389 2.948.091 3.373-1.018.76-1.979.394-2.323-3.255-3.053-2.113-.423-3.662-.028-5.391 1.372m14.268-.775c-3.075 1.237-1.925 4.357 1.307 3.546 1.267-.318 2.583-.127 2.924.425.36.582-.581 1.004-2.239 1.004-3.386 0-5.259 1.602-5.259 4.5 0 2.68 1.82 4.5 4.5 4.5 1.155 0 2.64-.54 3.3-1.2.933-.933 1.2-.933 1.2 0 0 .66.9 1.2 2 1.2 1.776 0 2-.667 2-5.943 0-5.008-.35-6.189-2.223-7.5-2.477-1.736-4.212-1.858-7.51-.532m13.4-.358c-.367.366-.667 3.741-.667 7.5 0 6.622.077 6.833 2.5 6.833 2.295 0 2.5-.368 2.5-4.481 0-3.946.299-4.556 2.5-5.108 1.795-.451 2.5-1.302 2.5-3.019 0-2.566-1.847-3.145-3.8-1.192-.933.933-1.467.933-2.4 0-1.359-1.359-2.169-1.497-3.133-.533m-75.237 2.754c-1.003 3.997-.133 6.053 2.702 6.383 2.08.242 2.708-.185 3.072-2.091 1.093-5.715-4.393-9.793-5.774-4.292M126 211c0 .55.423 1 .941 1s1.219-.45 1.559-1c.34-.55-.084-1-.941-1s-1.559.45-1.559 1m28 0c0 .55.423 1 .941 1s1.219-.45 1.559-1c.34-.55-.084-1-.941-1s-1.559.45-1.559 1m-22 29.397v9.396l5.41.065c6.408.076 7.863-1.193 7.863-6.858 0-5.066-1.804-7.296-5.466-6.758-2.511.368-2.807.114-2.807-2.415 0-2.349-.423-2.827-2.5-2.827-2.489 0-2.5.04-2.5 9.397m-60.95-6.957c-2.103 2.533-.831 6.857 2.661 9.046 4.378 2.745 4.092 3.825-.794 3-3.872-.654-4.066-.568-3.75 1.662.287 2.029.968 2.393 4.962 2.652 8.158.528 10.838-6.099 4.16-10.286-4.02-2.52-4.189-3.944-.379-3.182 2.914.583 4.851-1.292 3.534-3.422-.915-1.48-9.071-1.065-10.394.53M84 241.878c0 3.497.509 6.299 1.256 6.92.691.573 3.841 1.019 7 .991l5.744-.052v-6.869c0-6.659-.076-6.868-2.5-6.868-2.219 0-2.502.421-2.515 3.75-.009 2.063-.408 4.37-.889 5.128-1.525 2.409-3.096.158-3.096-4.437 0-4.07-.209-4.441-2.5-4.441-2.383 0-2.5.275-2.5 5.878m17 4.254c0 9.859.002 9.868 2.5 9.868 2.111 0 2.5-.467 2.5-3 0-2.659.337-3 2.965-3 3.415 0 5.035-2.252 5.035-7 0-5.627-1.341-6.842-7.491-6.786l-5.509.049v9.869m16.736-9.534c-1.385 1.384.708 3.409 3.621 3.504l3.143.103-3.087.738c-4.392 1.05-5.415 1.877-5.398 4.366.027 3.838 1.282 4.624 7.272 4.552l5.713-.068v-5.696c0-3.134-.54-6.237-1.2-6.897-1.223-1.223-8.979-1.688-10.064-.602m31 0c-1.385 1.384.708 3.409 3.621 3.504l3.143.103-3.087.738c-4.427 1.058-5.413 1.876-5.413 4.494 0 3.374 1.911 4.457 7.785 4.411l5.215-.04v-5.704c0-3.137-.54-6.244-1.2-6.904-1.223-1.223-8.979-1.688-10.064-.602m15.464.602c-2.355 2.355-1.397 5.806 2.05 7.389l3.25 1.493-3.25-.368c-2.841-.321-3.25-.075-3.25 1.959 0 2.075.465 2.327 4.3 2.327 4.816 0 6.7-1.314 6.7-4.674 0-1.516-1.001-2.792-3-3.826-3.503-1.812-3.875-2.542-.898-1.763 2.096.548 4.239-1.376 3.273-2.939-.77-1.246-7.837-.936-9.175.402m13.455.629c-2.237 2.471-2.138 8.424.174 10.516 1.086.983 3.522 1.655 6 1.655 3.461 0 4.171-.33 4.171-1.94 0-1.505-.84-2.027-3.75-2.332l-3.75-.392 4.25-.168c3.994-.158 4.25-.344 4.25-3.097 0-1.61-.707-3.635-1.571-4.5-2.15-2.149-7.729-2.002-9.774.258M106 243c0 2.089.425 3.025 1.25 2.75.688-.229 1.25-1.467 1.25-2.75s-.562-2.521-1.25-2.75c-.825-.275-1.25.661-1.25 2.75m31.362-1.5c-.716 1.864.226 4.5 1.607 4.5.567 0 1.031-1.35 1.031-3 0-3.14-1.649-4.078-2.638-1.5m44.451-.817c.721.289 1.584.253 1.916-.079.332-.332-.258-.568-1.312-.525-1.165.048-1.402.285-.604.604M121.5 245c-.34.55.084 1 .941 1s1.559-.45 1.559-1-.423-1-.941-1-1.219.45-1.559 1m31 0c-.34.55.084 1 .941 1s1.559-.45 1.559-1-.423-1-.941-1-1.219.45-1.559 1" fill="#1976D2" fill-rule="evenodd"/><path fill-opacity=".567" d="M98.427 1.669c1.079 2.814 31.023 54.31 31.586 54.321.565.011 30.452-51.411 31.547-54.278.631-1.653-.054-1.766-9.092-1.5L142.694.5l-6.097 10.714c-3.353 5.892-6.322 10.719-6.597 10.725-.275.006-3.209-4.815-6.52-10.714L117.461.5l-9.852-.288c-9.024-.263-9.796-.141-9.182 1.457m57.86 108.581C153.8 112.965 150 120.332 150 122.44c0 .836 1.759 2.417 3.908 3.513 3.79 1.934 3.892 2.121 3.348 6.173-.691 5.151 1.159 6.874 7.38 6.874h4.253l-2.596-5.672c-2.034-4.441-2.654-7.524-2.859-14.201-.209-6.817-.618-8.789-2.039-9.827-2.37-1.733-2.707-1.67-5.108.95m34.264 1.094c-1.403 1.84-2.551 3.809-2.551 4.377 0 .567 2.503 1.239 5.563 1.493 3.909.324 7.979 1.695 13.691 4.614 7.535 3.85 8.292 4.044 10.389 2.67 2.185-1.431 2.209-1.61.711-5.24-1.247-3.023-4.064-7.494-7.066-11.215-.203-.251-2.318.608-4.7 1.909l-4.332 2.366-3.032-2.159c-4.129-2.94-5.69-2.726-8.673 1.185M73 118.36c0 6.27 1.226 14.315 1.914 12.564 1.524-3.877 10.812-15.852 12.586-16.228 1.1-.233-1.713-.485-6.25-.56L73 114v4.36M180 128c-2.802 2.802-2.683 8.408.223 10.443 3.409 2.389 7.319 1.954 9.704-1.078 2.722-3.46 2.617-5.912-.382-8.91-2.973-2.973-6.842-3.158-9.545-.455m15.939 18.614c-1.969 3.679-10.641 11.261-15.689 13.717-3.696 1.798-4.25 2.489-4.25 5.296 0 3.155.12 3.242 5.25 3.806 2.887.318 6.825.222 8.75-.214 3.326-.752 3.515-1.024 3.803-5.471.278-4.286.636-4.867 4.25-6.898 2.171-1.22 3.947-2.828 3.947-3.574 0-1.321-3.732-9.276-4.351-9.276-.171 0-.941 1.176-1.71 2.614m-108.9 53.575c-2.465 2.645-2.753 9.347-.538 12.509.826 1.179 2.804 2.43 4.397 2.779 1.592.35 3.686 1.511 4.653 2.58.968 1.069 2.845 1.943 4.172 1.943h2.413L100 217c-1.175-1.65-1.71-3-1.189-3 1.668 0 3.462-5.886 2.801-9.19-.981-4.904-3.284-6.81-8.228-6.81-3.142 0-4.857.592-6.345 2.189m4.651 1.965c-2.176 1.217-2.246 7.14-.106 8.916 3.137 2.603 6.279-1.495 5.013-6.539-.692-2.757-2.588-3.675-4.907-2.377m13.31 5.811c0 4.978.337 6.145 2.038 7.055 1.125.602 3.028.759 4.25.349 1.216-.408 3.225-.626 4.462-.484 2.131.245 2.25-.089 2.25-6.313 0-6.304-.1-6.572-2.445-6.572-2.208 0-2.475.461-2.75 4.75-.22 3.42-.725 4.75-1.805 4.75s-1.585-1.33-1.805-4.75c-.252-3.934-.639-4.75-2.25-4.75-1.709 0-1.945.723-1.945 5.965m17.736-5.367c-1.311 1.31.486 3.082 2.697 2.66 1.283-.246 2.637.046 3.009.648.429.695-.368 1.094-2.183 1.094-3.414 0-5.259 1.606-5.259 4.578 0 3.269 2.524 4.96 5.429 3.636 1.303-.594 3.315-.832 4.47-.53 1.944.508 2.101.143 2.101-4.867 0-2.98-.54-5.957-1.2-6.617-1.229-1.229-7.989-1.678-9.064-.602m14.648.844c-1.019 2.655.116 5.03 3.128 6.55l2.988 1.508-3.25.313c-1.991.192-3.25.863-3.25 1.731 0 1.959 4.01 2.783 7.355 1.511 2.241-.852 2.717-1.582 2.461-3.782-.189-1.628-1.23-3.18-2.584-3.851-3.533-1.752-3.997-2.743-1.032-2.207 2.548.461 4.487-1.195 3.064-2.617-1.259-1.26-8.331-.588-8.88.844m13.811.308c.246 1.259 1.108 1.66 3.074 1.428 1.502-.176 2.731.161 2.731.75 0 .59-.93 1.072-2.066 1.072-3.155 0-5.934 1.856-5.934 3.964 0 2.855 2.926 5.309 5.399 4.528 1.156-.365 3.339-.618 4.851-.562 2.615.097 2.75-.124 2.75-4.48 0-6.893-1.217-8.45-6.609-8.45-3.785 0-4.481.29-4.196 1.75M165 208.5c0 6.267.09 6.5 2.5 6.5 2.253 0 2.5-.398 2.5-4.031 0-2.927.48-4.209 1.75-4.677 1.794-.662 3.207-2.21 3.235-3.542.024-1.196-3.468-.867-4.785.45-.933.933-1.2.933-1.2 0 0-.66-.9-1.2-2-1.2-1.795 0-2 .667-2 6.5m-38.971 1.461c-.809.512-1.166 1.235-.793 1.608.915.915 3.764-.249 3.764-1.538 0-1.27-1.035-1.294-2.971-.07m28.638-.294c-1.151 1.15-.729 2.333.833 2.333.825 0 1.5-.675 1.5-1.5 0-1.562-1.183-1.984-2.333-.833M132 240.385v9.384h5.044c6.124 0 7.956-1.558 7.956-6.769 0-4.604-2.321-7.363-5.658-6.725-2.015.385-2.342.048-2.342-2.414 0-2.385-.416-2.861-2.5-2.861-2.489 0-2.5.041-2.5 9.385m-60.345-6.556c-2.722 3.007-2.056 6.002 1.845 8.304 4.5 2.655 4.482 4.2-.044 3.672-3.111-.363-3.508-.163-3.25 1.641.384 2.681 5.953 3.335 9.365 1.1 3.681-2.413 3.221-6.146-1.071-8.679-4.284-2.527-4.586-4.334-.59-3.535 2.136.427 3.075.15 3.533-1.045 1.322-3.443-6.885-4.666-9.788-1.458m13.012 2.838c-.828.827-.848 7.054-.034 10.094.716 2.671 4.879 4.025 7.447 2.421 1.312-.819 1.877-.811 2.159.034.214.642 1.143.851 2.119.477 1.442-.554 1.687-1.732 1.44-6.93-.265-5.575-.539-6.297-2.491-6.575-1.962-.279-2.225.193-2.5 4.491-.232 3.63-.734 4.884-2.057 5.135-1.48.281-1.75-.449-1.75-4.741 0-4.253-.296-5.073-1.833-5.073-1.009 0-2.134.3-2.5.667M101 246.07c0 9.87.044 10.063 2.25 9.75 1.795-.255 2.249-.962 2.245-3.496-.005-2.897.226-3.13 2.623-2.65 4.885.977 7.739-6.578 4.325-11.451-1.712-2.446-4.383-2.883-6.243-1.023-.933.933-1.2.933-1.2 0 0-.66-.9-1.2-2-1.2-1.868 0-2 .667-2 10.07m18.25-9.408c-.687.278-1.25 1.191-1.25 2.03 0 1.101.653 1.361 2.352.935 3.649-.916 4.09.625.519 1.814-4.043 1.347-5.771 3.904-4.264 6.309 1.335 2.129 5.009 2.814 6.859 1.278.934-.775 1.558-.798 2.004-.077.356.577 1.296 1.049 2.089 1.049 2.101 0 1.992-10.306-.13-12.429-1.512-1.511-5.569-1.962-8.179-.909m30.872.242c-2.122 1.344-.321 3.184 2.439 2.491 1.487-.373 2.439-.179 2.439.497 0 .609-.85 1.108-1.889 1.108-1.039 0-2.936.847-4.214 1.883-2.052 1.661-2.185 2.189-1.132 4.5 1.245 2.733 5.458 3.683 6.789 1.53.484-.783.976-.783 1.759 0 2.581 2.581 3.687 1.117 3.687-4.878 0-4.874-.354-6.154-1.934-7-2.347-1.256-6.071-1.318-7.944-.131m14.628.151c-2.711 1.618-2.119 4.828 1.244 6.742 3.883 2.209 3.84 3.545-.087 2.683-2.652-.583-3.042-.416-2.739 1.17.671 3.523 9.197 2.926 10.355-.724.718-2.261-1.866-5.926-4.178-5.926-.74 0-1.345-.499-1.345-1.108 0-.693.969-.866 2.581-.461 2.118.531 2.52.327 2.242-1.142-.397-2.093-5.362-2.852-8.073-1.234M178 238c-2.598 2.598-2.571 7.429.057 10.057 2.555 2.555 9.243 2.411 9.739-.21.243-1.282-.405-1.619-2.885-1.5-1.781.085-3.393-.401-3.638-1.097-.305-.868.809-1.25 3.644-1.25 3.416 0 4.083-.327 4.083-2 0-2.772-3.497-6-6.5-6-1.375 0-3.4.9-4.5 2m3.5 2c-.34.55.335 1 1.5 1s1.84-.45 1.5-1c-.34-.55-1.015-1-1.5-1-.485 0-1.16.45-1.5 1m-75.5 3c0 2 .5 3 1.5 3s1.5-1 1.5-3-.5-3-1.5-3-1.5 1-1.5 3m31 0c0 2 .5 3 1.5 3s1.5-1 1.5-3-.5-3-1.5-3-1.5 1-1.5 3m-16 2.583c0 .871.534 1.406 1.188 1.188 1.854-.618 2.161-2.771.395-2.771-.87 0-1.583.713-1.583 1.583m31-.642c0 1.732 1.76 2.053 3.009.548 1.029-1.239.88-1.489-.887-1.489-1.167 0-2.122.423-2.122.941" fill="#1976D2" fill-rule="evenodd"/><path fill-opacity=".971" d="M155.228 112.25c-3.617 5.361-5.929 11.015-4.676 11.438.522.176 2.411 1.212 4.198 2.301 2.955 1.802 3.25 2.427 3.25 6.88 0 5.306.938 6.087 7.357 6.117 2.346.012 2.721-.299 2.097-1.736-3.195-7.361-4.392-12.543-4.421-19.14-.026-5.839-.4-7.668-1.783-8.718-2.565-1.947-2.881-1.797-6.022 2.858m35.309-.519l-2.536 3.732 7.25 1.579c6.888 1.501 12.895 4.037 17.203 7.265 1.48 1.11 2.51 1.211 4.25.418 1.263-.575 2.296-1.438 2.296-1.918 0-1.824-3.166-8.336-5.612-11.543l-2.551-3.344-4.168 2.33-4.169 2.33-3.398-2.29c-4.579-3.086-5.606-2.913-8.565 1.441M183 126.774c-5.022 1.63-6.619 7.607-3 11.226 4.068 4.068 11.012 1.345 10.985-4.307-.009-1.756-.355-3.727-.771-4.38-1.023-1.61-5.368-3.138-7.214-2.539m13.54 19.1c-.927 2.921-11.573 12.535-16.264 14.688-3.446 1.581-4.229 2.441-4.25 4.669-.032 3.321 2.004 4.012 10.516 3.575l5.958-.306.305-4.758c.282-4.403.594-4.905 4.182-6.736 2.133-1.087 4.146-2.412 4.474-2.942.52-.842-3.149-10.064-4.004-10.064-.177 0-.59.843-.917 1.874M87.455 200.455C85.808 202.101 85 204.032 85 206.32c0 3.898 3.26 8.68 5.918 8.68.974 0 2.587.9 3.582 2 .995 1.1 2.935 2 4.31 2 2.437 0 2.454-.051.69-2-1.687-1.864-1.698-2.124-.155-3.829 2.427-2.682 2.22-10.606-.345-13.171-2.874-2.874-8.436-2.655-11.545.455m2.974 3.013c-1.212 1.85-1.385 3.164-.69 5.25 1.76 5.284 7.261 3.663 7.261-2.14 0-5.601-3.77-7.385-6.571-3.11m14.571 3.91c0 3.092.531 5.81 1.25 6.395.688.561 3.612 1.014 6.5 1.008l5.25-.012v-6.384c0-5.718-.209-6.385-2-6.385-1.642 0-2.003.672-2.015 3.75-.019 4.582-1.254 6.745-3.384 5.927-1.142-.438-1.601-1.913-1.601-5.146 0-3.864-.294-4.531-2-4.531-1.752 0-2 .667-2 5.378m18.667-4.711C122.233 204.1 123.133 205 126 205c1.65 0 3 .45 3 1s-1.039 1-2.309 1c-3.485 0-5.934 2.237-5.536 5.056.318 2.251.798 2.454 6.095 2.566l5.75.122v-5.172c0-2.845-.54-5.712-1.2-6.372-1.276-1.276-7.015-1.652-8.133-.533m14.578.488c-2.116 2.116-1.384 4.722 1.788 6.362 3.47 1.794 3.057 3.795-.594 2.878-1.828-.458-2.439-.209-2.439.997 0 2.11 7.233 2.237 8.96.156 1.665-2.006.492-5.021-2.479-6.375-3.338-1.52-3.227-3.398.149-2.551 1.991.5 2.519.322 2.173-.731-.596-1.815-5.957-2.337-7.558-.736m13.449-.516c-1.134 1.134.356 2.361 2.865 2.361 1.343 0 2.441.45 2.441 1s-.85 1-1.889 1c-1.039 0-2.899.818-4.133 1.817-1.879 1.522-2.061 2.16-1.117 3.923.956 1.786 1.981 2.087 6.74 1.975l5.612-.131-.446-5.384c-.259-3.12-1.04-5.759-1.857-6.277-1.63-1.032-7.273-1.227-8.216-.284m14.141 5.863c-.321 6.223-.236 6.502 1.974 6.5 1.378-.001 2.044-.431 1.651-1.067-.362-.586-.368-2.611-.014-4.5.473-2.522 1.164-3.435 2.599-3.435 1.288 0 1.955-.682 1.955-2 0-2.275-.381-2.401-3.005-.997-1.252.67-2.079.67-2.493 0-1.473-2.384-2.354-.568-2.667 5.499m-40.389 1.585c-.369.598-.21 1.549.354 2.113 1.262 1.262 3.2.196 3.2-1.759 0-1.684-2.574-1.94-3.554-.354m28.899.456c-.326.849-.322 1.813.007 2.143.865.864 3.731-1.742 3.078-2.799-.854-1.381-2.432-1.045-3.085.656m-21.845 21.29c-.275.275-.5 4.224-.5 8.775 0 8.103 1.004 10.788 3.21 8.582.714-.714 1.81-.682 3.53.101 2.161.985 2.747.826 4.377-1.188 2.452-3.028 2.399-7.587-.117-10.103-2.212-2.212-3.565-2.513-4.5-1-1.265 2.047-2.5.895-2.5-2.333 0-2.297-.467-3.334-1.5-3.334-.825 0-1.725.225-2 .5m-59.148 1.16c-4.866 1.964-4.216 6.748 1.273 9.365 3.258 1.554 3.515 1.931 2.204 3.241-1.142 1.142-2.097 1.249-4.156.467-2.318-.882-2.673-.763-2.673.891 0 3.821 9.012 3.758 11.064-.076 1.531-2.862.407-5.173-3.558-7.308-5.086-2.739-4.621-4.087 1.244-3.612 1.386.112 2.25-.377 2.25-1.273 0-.8-1.013-1.726-2.25-2.058-2.706-.725-2.699-.726-5.398.363m33.833 3.871c-.723.459-2.41.624-3.75.368l-2.435-.465v9.116c0 8.45.146 9.117 2 9.117 1.623 0 2-.667 2-3.535 0-3.225.175-3.442 2-2.465 4.14 2.215 7.858-2.735 6.404-8.526-.349-1.39-1.453-2.965-2.453-3.5-2.172-1.163-2.108-1.161-3.766-.11m12.51-.164c-2.557.663-1.534 2.715 1.375 2.761 3.577.057 3.929 1.987.43 2.351-3.525.367-5.492 2.504-4.786 5.201.627 2.398 3.609 3.42 6.095 2.089 1.287-.689 2.222-.671 2.951.058 1.865 1.865 3.24-.137 3.24-4.719 0-6.633-3.227-9.317-9.305-7.741m31.092.121c-2.236.887-.922 2.679 1.963 2.679 3.478 0 2.733 1.939-.961 2.5-2.833.431-3.332.939-3.596 3.665-.362 3.733 2.329 5.196 5.971 3.247 1.575-.843 2.348-.876 2.603-.112.199.598 1.008.84 1.798.537.973-.374 1.435-2.108 1.435-5.387 0-3.864-.447-5.15-2.223-6.393-2.355-1.65-4.199-1.844-6.99-.736m15.048-.167c-3.674 1.015-3.236 5.387.72 7.189 3.527 1.607 3.143 3.547-.555 2.807-3.846-.769-4.245 2-.426 2.958 6.697 1.681 10.365-5.037 4.426-8.108-3.661-1.893-3.874-2.9-.476-2.251 2.189.419 4.35-.708 3.324-1.734-.728-.728-5.412-1.303-7.013-.861m13.509.321c-1.261.521-2.439 2.18-2.838 3.999-1.229 5.593 3.945 10.287 9.422 8.549 3.185-1.011 2.589-3.253-.735-2.765-1.757.258-3.299-.181-4.122-1.173-1.17-1.409-.79-1.585 3.415-1.585 4.659 0 4.72-.042 4.052-2.75-.374-1.512-.985-3.056-1.359-3.429-1.266-1.266-5.668-1.742-7.835-.846M85.2 242.646c.346 6.521 2.325 8.756 5.82 6.574 1.477-.923 2.562-.979 4.003-.208 1.876 1.004 1.977.723 1.977-5.477 0-5.807-.217-6.535-1.945-6.535-1.611 0-1.998.816-2.25 4.75-.22 3.42-.725 4.75-1.805 4.75s-1.585-1.33-1.805-4.75c-.255-3.978-.629-4.75-2.3-4.75-1.793 0-1.964.571-1.695 5.646m20.976-2.422c-1.563 1.563-1.492 4.269.148 5.63 1.595 1.323 3.676-.336 3.676-2.932 0-2.493-2.362-4.16-3.824-2.698m30.81.293c-1.902 2.291.398 7.239 2.539 5.462 1.85-1.535 1.902-4.38.108-5.869-1.041-.864-1.673-.767-2.647.407m43.742-.912c-1.089 1.089.227 2.395 2.414 2.395 1.175 0 1.85-.525 1.608-1.25-.475-1.428-3.015-2.151-4.022-1.145m-59.061 4.062c-.367.366-.667 1.266-.667 2 0 1.77 2.639 1.715 3.324-.069.808-2.106-1.098-3.491-2.657-1.931m31.583.041c-1.73.635-1.576 3.292.191 3.292 1.819 0 3.064-1.919 1.922-2.962-.475-.433-1.425-.582-2.113-.33" fill="#1976D2" fill-rule="evenodd"/></svg>